<?xml version="1.0" standalone="no"?>
<!DOCTYPE svg PUBLIC "-//W3C//DTD SVG 20010904//EN"
 "http://www.w3.org/TR/2001/REC-SVG-20010904/DTD/svg10.dtd">
<svg version="1.0" xmlns="http://www.w3.org/2000/svg"
 width="4096.000000pt" height="4096.000000pt" viewBox="0 0 4096.000000 4096.000000"
 preserveAspectRatio="xMidYMid meet">

<g transform="translate(0.000000,4096.000000) scale(0.100000,-0.100000)"
fill="#000000" stroke="none">
<path d="M8495 36393 c-839 -72 -1583 -392 -2220 -954 -653 -575 -1114 -1380
-1289 -2250 -71 -356 -90 -626 -74 -1081 23 -664 12 -1861 -23 -2528 -125
-2412 -543 -4344 -1235 -5710 -484 -957 -1084 -1611 -1829 -1996 -236 -122
-485 -216 -751 -283 -135 -34 -361 -75 -469 -86 -38 -4 -78 -9 -88 -11 -16 -5
-17 -60 -15 -1017 l3 -1012 100 -11 c1551 -183 2686 -1249 3415 -3209 514
-1383 798 -3069 892 -5285 15 -369 16 -1718 0 -2116 -17 -437 2 -714 73 -1069
86 -429 240 -844 453 -1220 81 -143 267 -417 378 -555 138 -173 431 -466 604
-604 554 -443 1186 -714 1886 -810 61 -9 205 -20 320 -26 148 -8 3630 -10
12009 -8 11015 4 11809 5 11935 21 857 107 1553 425 2173 992 362 330 657 726
887 1190 204 412 327 801 390 1230 41 287 44 405 30 1135 -21 1070 -3 1901 61
2790 206 2897 864 5044 1925 6286 129 151 376 393 519 508 515 414 1170 684
1830 754 l70 7 3 1012 2 1013 -22 4 c-13 3 -50 8 -83 11 -107 11 -346 56 -480
90 -1489 382 -2533 1660 -3171 3880 -369 1282 -581 2810 -644 4625 -14 406
-13 1461 1 1950 14 443 7 638 -32 905 -100 696 -374 1350 -797 1909 -240 316
-583 646 -902 867 -502 347 -1031 551 -1680 646 -108 16 -892 17 -12115 19
-6600 0 -12018 -1 -12040 -3z m13479 -7466 c395 -39 658 -80 958 -148 686
-155 1307 -421 1816 -776 897 -627 1461 -1542 1616 -2623 34 -233 41 -342 40
-640 0 -326 -9 -432 -60 -694 -105 -547 -342 -1083 -681 -1541 -408 -551 -970
-993 -1584 -1245 -213 -88 -486 -168 -683 -201 l-76 -13 0 -46 0 -47 133 -17
c838 -110 1628 -419 2231 -874 933 -702 1474 -1710 1567 -2919 15 -192 6 -719
-15 -913 -103 -934 -417 -1707 -960 -2368 -117 -144 -453 -472 -603 -591 -588
-466 -1277 -796 -2101 -1005 -533 -135 -1053 -212 -1677 -246 -124 -6 -1459
-10 -3847 -10 l-3658 0 0 8470 0 8470 3708 -3 c3385 -3 3722 -5 3876 -20z"/>
<path d="M17075 26788 c-3 -7 -4 -1147 -3 -2533 l3 -2520 1670 0 c1797 1 1832
2 2255 55 1324 169 2204 727 2547 1615 130 334 185 718 162 1123 -50 890 -461
1531 -1224 1908 -425 210 -907 321 -1540 354 -299 16 -3864 13 -3870 -2z"/>
<path d="M17077 19734 c-4 -4 -7 -1260 -7 -2791 l0 -2783 1948 0 c1936 0 2195
4 2522 35 996 97 1743 387 2239 870 139 135 219 231 315 374 207 310 331 655
392 1096 29 202 26 697 -4 895 -46 300 -112 519 -226 755 -414 854 -1302 1349
-2696 1505 -375 42 -429 43 -2490 47 -1092 3 -1989 1 -1993 -3z"/>
</g>
</svg>
