<?xml version="1.0" encoding="UTF-8"?>
<svg version="1.1" xmlns="http://www.w3.org/2000/svg" width="1279" height="1280">
<path d="M0 0 C1.62436792 -0.00611329 1.62436792 -0.00611329 3.28155136 -0.01235008 C9.03307648 -0.03313791 14.78457839 -0.04746122 20.53613281 -0.05688477 C25.21758335 -0.06567009 29.89872984 -0.08637632 34.58007812 -0.1184082 C60.24626895 -0.29017578 85.43777345 -0.15106142 110.85800171 3.69277954 C114.88787702 4.29767538 118.92338209 4.84520773 122.96240234 5.38476562 C144.76748191 8.32073232 166.13264605 13.01040103 187.4921875 18.23828125 C188.16167419 18.40179077 188.83116089 18.56530029 189.52093506 18.73376465 C221.66432609 26.63144924 253.31824309 37.66559502 283.4921875 51.23828125 C285.31061033 52.03909598 287.12960926 52.83860401 288.94921875 53.63671875 C298.51433757 57.85620485 307.94596497 62.30078708 317.24267578 67.08251953 C318.85885742 67.91288679 320.47729557 68.73886756 322.09716797 69.56201172 C335.91184581 76.58630157 349.33861155 84.04301626 362.4921875 92.23828125 C363.84425293 93.07794434 363.84425293 93.07794434 365.22363281 93.93457031 C398.98637877 114.9672931 430.34566313 139.1513959 459.828125 165.828125 C461.57717648 167.41047803 463.33221988 168.98623801 465.09375 170.5546875 C471.86312823 176.6471279 478.35531081 182.99579853 484.8046875 189.42578125 C485.65272949 190.26923096 486.50077148 191.11268066 487.37451172 191.98168945 C491.71404961 196.33190324 495.90304866 200.74887761 499.90795898 205.40893555 C502.31936345 208.19344066 504.84778229 210.86440452 507.3671875 213.55078125 C512.66593216 219.25312997 517.62116786 225.16542506 522.4921875 231.23828125 C523.474954 232.43101467 524.45943681 233.62233526 525.4453125 234.8125 C533.86116021 245.00390834 541.75965786 255.52150303 549.4921875 266.23828125 C550.01699707 266.96160645 550.54180664 267.68493164 551.08251953 268.43017578 C559.032001 279.40707006 566.39286769 290.69522857 573.4921875 302.23828125 C573.90065918 302.90069824 574.30913086 303.56311523 574.72998047 304.24560547 C596.16305924 339.12266153 614.09224815 375.93388119 628.4921875 414.23828125 C628.8835791 415.26421387 629.2749707 416.29014648 629.67822266 417.34716797 C647.23803492 463.50246488 657.95801377 511.91347766 664.3671875 560.80078125 C664.47073547 561.58943573 664.57428345 562.37809021 664.68096924 563.19064331 C665.33174228 568.2011485 665.97812896 573.21166731 666.4921875 578.23828125 C666.58250244 579.11874619 666.67281738 579.99921112 666.76586914 580.90635681 C667.70330241 591.3394457 667.67505852 601.768454 667.6953125 612.234375 C667.69813988 613.23310198 667.70096725 614.23182896 667.70388031 615.26082039 C667.7188006 620.56035746 667.72807171 625.85986787 667.73242188 631.15942383 C667.73678162 635.47331313 667.75058604 639.78699963 667.7734375 644.10083008 C667.89924574 668.35140889 667.71937341 692.17057696 664.4921875 716.23828125 C664.26959777 718.02450467 664.0481644 719.81087273 663.828125 721.59741211 C663.2403079 726.2383024 662.5731282 730.86401595 661.8671875 735.48828125 C661.74413239 736.30303925 661.62107727 737.11779724 661.49429321 737.95724487 C656.88559047 768.17538772 650.39719429 798.08858387 641.13085938 827.22973633 C640.45730393 829.3479858 639.78929385 831.46794626 639.12109375 833.58789062 C632.57540669 854.26733531 625.17013194 874.35211299 616.4921875 894.23828125 C615.91936035 895.57221924 615.91936035 895.57221924 615.33496094 896.93310547 C605.16790269 920.59588899 593.39725265 943.57348404 580.07958984 965.61035156 C578.60642458 968.04916283 577.15058541 970.49739546 575.69921875 972.94921875 C568.47741834 985.05927614 560.54338713 996.66813624 552.4921875 1008.23828125 C552.02425781 1008.91375 551.55632812 1009.58921875 551.07421875 1010.28515625 C534.79873511 1033.72185269 516.40288195 1055.74424558 496.98583984 1076.63134766 C495.32491537 1078.4182396 493.66849903 1080.20926534 492.01171875 1082 C483.78345336 1090.87533291 475.58165147 1099.68350464 466.37890625 1107.56640625 C464.55759034 1109.18032593 462.86950782 1110.86325356 461.1796875 1112.61328125 C457.50282833 1116.35684081 453.46080113 1119.57124168 449.375 1122.85546875 C446.52827778 1125.20845053 443.82124678 1127.66092728 441.1171875 1130.17578125 C436.32060865 1134.57997424 431.30026096 1138.58228173 426.1015625 1142.49609375 C423.53605588 1144.42945727 421.01382597 1146.40811231 418.5078125 1148.41796875 C407.23897561 1157.41775585 395.46951105 1165.47229084 383.390625 1173.34375 C380.72650418 1175.08512277 378.07593565 1176.84491542 375.4296875 1178.61328125 C347.12018833 1197.43765369 316.79588587 1213.9431541 285.4921875 1227.23828125 C283.72174072 1228.00108398 283.72174072 1228.00108398 281.91552734 1228.77929688 C260.15118648 1238.14420821 238.12186038 1246.22166063 215.4921875 1253.23828125 C214.82245911 1253.44690796 214.15273071 1253.65553467 213.46270752 1253.8704834 C159.9654591 1270.4815767 102.08079427 1280.28774219 46.0078125 1280.44140625 C45.29080925 1280.44423363 44.573806 1280.447061 43.83507538 1280.44997406 C40.02220822 1280.4648506 36.20937759 1280.47414626 32.39648438 1280.47851562 C29.32930262 1280.48284848 26.26241042 1280.4965524 23.1953125 1280.51953125 C1.12262137 1280.68125444 -20.56298643 1279.64210812 -42.5078125 1277.23828125 C-43.54981812 1277.12468262 -44.59182373 1277.01108398 -45.66540527 1276.89404297 C-51.62695404 1276.22760709 -57.56912079 1275.4583387 -63.5078125 1274.61328125 C-64.38294495 1274.49055847 -65.25807739 1274.36783569 -66.159729 1274.24139404 C-160.26445592 1260.89910974 -255.09056182 1225.06286018 -338.65673828 1165.58349609 C-340.47918385 1164.2590863 -342.31594056 1162.95794396 -344.16015625 1161.6640625 C-352.50520283 1155.80149004 -360.55691713 1149.62341004 -368.5078125 1143.23828125 C-369.47122559 1142.46629395 -369.47122559 1142.46629395 -370.45410156 1141.67871094 C-390.33216586 1125.72382103 -409.076122 1108.85972098 -427.07226562 1090.80419922 C-429.03139906 1088.83962924 -430.99592894 1086.88056677 -432.9609375 1084.921875 C-439.02109153 1078.86525434 -445.00574015 1072.81454018 -450.5078125 1066.23828125 C-451.44514859 1065.1549798 -452.3839221 1064.07292021 -453.32421875 1062.9921875 C-466.37140081 1047.8615056 -478.83735392 1032.4616339 -490.5078125 1016.23828125 C-491.01521973 1015.53767578 -491.52262695 1014.83707031 -492.04541016 1014.11523438 C-511.52851287 987.17912268 -528.44850768 958.85816249 -543.5078125 929.23828125 C-544.21974961 927.85401106 -544.93196148 926.46988213 -545.64453125 925.0859375 C-555.4326015 905.94449673 -563.91717473 886.33601934 -571.40722656 866.18896484 C-572.391727 863.54950781 -573.39437103 860.91811196 -574.40625 858.2890625 C-590.56833631 815.95743394 -600.74616083 771.18900255 -606.8828125 726.36328125 C-607.06508392 725.04441925 -607.06508392 725.04441925 -607.2510376 723.69891357 C-608.08987721 717.55439537 -608.83445863 711.40308225 -609.5078125 705.23828125 C-609.60706024 704.3412851 -609.70630798 703.44428894 -609.80856323 702.52011108 C-611.80492461 683.72057634 -611.85051407 664.92191453 -611.82348633 646.0402832 C-611.81887243 642.56326296 -611.82572919 639.08659403 -611.84399414 635.60961914 C-612.00060303 605.46500447 -610.36018549 575.82340228 -605.8203125 545.98828125 C-605.69564606 545.15272705 -605.57097961 544.31717285 -605.4425354 543.45629883 C-596.11646878 481.33183107 -577.7754247 420.85500276 -550.5078125 364.23828125 C-549.94191406 363.06265625 -549.37601563 361.88703125 -548.79296875 360.67578125 C-540.89286943 344.33219167 -532.49029828 328.41234784 -523.09521484 312.86621094 C-521.62204958 310.42739967 -520.16621041 307.97916704 -518.71484375 305.52734375 C-504.60529496 281.86472431 -488.5384526 259.17451417 -470.94775391 237.97802734 C-468.9283493 235.53817024 -466.93910289 233.07408561 -464.9453125 230.61328125 C-451.15769622 213.81745778 -436.46230126 198.01179142 -421.07373047 182.67382812 C-419.10916049 180.71469469 -417.15009802 178.75016481 -415.19140625 176.78515625 C-409.13349217 170.72365986 -403.07419521 164.75389421 -396.5078125 159.23828125 C-395.26890847 158.15845446 -394.03194649 157.07639574 -392.796875 155.9921875 C-385.82310096 149.90924113 -378.80486119 143.93280129 -371.5078125 138.23828125 C-370.16910154 137.1799016 -368.83057708 136.12128603 -367.4921875 135.0625 C-357.39563791 127.10667103 -347.11575186 119.49788414 -336.5078125 112.23828125 C-335.81284668 111.76213379 -335.11788086 111.28598633 -334.40185547 110.79541016 C-260.02031599 60.0581063 -176.20298735 24.89401831 -44.1171875 2.3671875 C-43.32184097 2.26653992 -42.52649445 2.16589233 -41.70704651 2.06219482 C-39.30904583 1.76863674 -36.90962617 1.4987435 -34.5078125 1.23828125 C-33.69100006 1.14467819 -32.87418762 1.05107513 -32.03262329 0.95463562 C-21.38762177 -0.11046199 -10.68659865 0.03433142 0 0 Z M-89.07617188 258.83740234 C-90.42828861 260.1604661 -91.80335647 261.45995648 -93.1796875 262.7578125 C-126.02731017 294.33029454 -141.30769554 339.22031812 -142.47265625 383.875 C-142.66309552 397.4322717 -140.29175278 410.25095406 -136.5078125 423.23828125 C-136.29592285 423.98964355 -136.0840332 424.74100586 -135.86572266 425.51513672 C-127.14581278 455.88189517 -110.72918959 483.66751401 -92.5078125 509.23828125 C-91.98010254 509.98384277 -91.45239258 510.7294043 -90.90869141 511.49755859 C-84.40077262 520.68127365 -77.75476521 529.6224597 -70.5078125 538.23828125 C-69.00645817 540.09135146 -67.50647846 541.94553615 -66.0078125 543.80078125 C-62.33218664 548.29605886 -58.51536639 552.63361232 -54.60546875 556.92578125 C-52.81273804 558.90212497 -51.05986023 560.90284855 -49.3203125 562.92578125 C-39.0483111 574.64228285 -28.13547854 585.71408497 -17.1328125 596.73828125 C-16.5214444 597.35223755 -15.91007629 597.96619385 -15.28018188 598.59875488 C-6.43260896 607.48216002 -6.43260896 607.48216002 2.88623047 615.86425781 C5.12591621 617.78048635 7.23227813 619.8317931 9.3671875 621.86328125 C14.84875573 626.7815595 20.91338744 631.26976076 28.4921875 631.86328125 C38.56725961 630.86806634 45.69589985 623.73810722 52.41015625 616.84375 C53.76238029 615.48447136 53.76238029 615.48447136 55.141922 614.09773254 C57.51745956 611.70456685 59.88132144 609.30096285 62.24041748 606.8916626 C64.15498221 604.94169859 66.08066367 603.00292766 68.00702953 601.06463146 C79.26961361 589.80133272 79.26961361 589.80133272 89.9606781 578.00296021 C92.66509955 574.88679545 95.52945439 571.92001578 98.3671875 568.92578125 C103.20072217 563.78593167 107.81781696 558.55532691 112.22265625 553.0390625 C114.39168864 550.36230481 116.62025464 547.75346754 118.87792969 545.15185547 C124.52373016 538.64443975 129.93600762 532.00037515 135.09814453 525.10058594 C136.08790173 523.77836738 137.08146319 522.45899274 138.07763672 521.14160156 C173.73800639 473.94435616 205.36383528 419.90615276 197.76904297 358.66113281 C195.07673086 340.92673736 189.45726996 323.29249954 181.4921875 307.23828125 C181.18700195 306.61163574 180.88181641 305.98499023 180.56738281 305.33935547 C169.51693248 282.85483813 153.07761155 263.71834939 133.4921875 248.23828125 C132.59886719 247.51640625 131.70554687 246.79453125 130.78515625 246.05078125 C65.90058361 195.23209498 -30.37733517 201.23484143 -89.07617188 258.83740234 Z M-246.5078125 637.23828125 C-247.84341194 637.43589225 -249.17932732 637.63138592 -250.515625 637.82421875 C-274.45672657 641.80578424 -296.42666184 652.52977017 -315.5078125 667.23828125 C-316.45011719 667.95628906 -317.39242187 668.67429687 -318.36328125 669.4140625 C-352.53851813 696.38932162 -376.9025599 737.49417872 -382.2578125 780.84765625 C-386.97371235 824.63106332 -376.83187388 869.80619941 -350.1875 905.33203125 C-348.01754874 908.02367811 -345.79265787 910.64369452 -343.5078125 913.23828125 C-342.755 914.10066406 -342.0021875 914.96304687 -341.2265625 915.8515625 C-339.01767794 918.3441223 -336.77524254 920.79895218 -334.5078125 923.23828125 C-333.89679688 923.9034375 -333.28578125 924.56859375 -332.65625 925.25390625 C-302.17065654 957.16648494 -257.53316016 972.78291515 -214.25390625 974.42578125 C-196.80551812 974.70301482 -180.29194751 971.81421342 -163.5078125 967.23828125 C-162.49340088 966.96226074 -162.49340088 966.96226074 -161.45849609 966.68066406 C-113.80445807 953.26362812 -83.18704893 916.54684826 -59.6953125 874.98828125 C-46.6291399 851.26194903 -35.9135274 826.61043292 -26.5078125 801.23828125 C-26.24935547 800.54327515 -25.99089844 799.84826904 -25.72460938 799.13220215 C-0.07588093 739.77142121 -0.07588093 739.77142121 2.9296875 679.86328125 C-2.28199971 671.51179943 -9.51157231 668.70371938 -18.6328125 665.86328125 C-19.81568848 665.48316895 -20.99856445 665.10305664 -22.21728516 664.71142578 C-35.53747526 660.49094203 -48.9855614 656.75100407 -62.5078125 653.23828125 C-63.66442383 652.93680176 -64.82103516 652.63532227 -66.01269531 652.32470703 C-97.4265202 644.22603741 -129.22452242 638.42585996 -161.5078125 635.23828125 C-162.50458008 635.13515625 -163.50134766 635.03203125 -164.52832031 634.92578125 C-175.41176162 633.93218374 -186.33816686 633.99653681 -197.2578125 633.98828125 C-198.30283936 633.98694183 -199.34786621 633.98560242 -200.42456055 633.98422241 C-216.00813948 633.9885555 -231.12429302 634.56033694 -246.5078125 637.23828125 Z M170.4921875 642.23828125 C169.24614746 642.45323242 168.00010742 642.66818359 166.71630859 642.88964844 C137.27513867 648.02754923 108.09051336 655.36407862 79.64990234 664.54931641 C77.69527831 665.17343374 75.72900533 665.76077398 73.76171875 666.34375 C66.65785071 668.50579679 59.49406711 671.23269862 54.90405273 677.35742188 C53.14321477 680.95034734 53.00368232 684.07486805 53.0625 687.9921875 C53.06976105 688.73827774 53.07702209 689.48436798 53.08450317 690.25306702 C53.3155856 698.53199947 55.20699971 706.22030457 57.3671875 714.17578125 C57.77654706 715.73873249 58.18480726 717.30197204 58.59204102 718.86547852 C59.85391226 723.66711823 61.16516324 728.45428737 62.4921875 733.23828125 C62.80340546 734.36339111 62.80340546 734.36339111 63.12091064 735.51123047 C84.35409111 812.045488 114.97343593 908.86473277 187.1796875 952.42578125 C205.77243777 962.62988325 227.38636996 969.86926091 248.4921875 972.23828125 C249.91144531 972.40263672 249.91144531 972.40263672 251.359375 972.5703125 C294.49627049 976.68642848 340.23688138 966.30709273 374.46484375 938.8125 C379.61743258 934.43113737 384.59100389 929.89795726 389.4921875 925.23828125 C390.17539062 924.61953125 390.85859375 924.00078125 391.5625 923.36328125 C418.94674184 897.69771568 438.06964188 855.81897941 439.65332031 818.43457031 C440.22659 764.77386119 426.31435226 720.05002604 388.4296875 680.92578125 C361.95969468 655.32543912 329.87245751 640.87021849 293.4921875 636.23828125 C292.59806152 636.12258789 291.70393555 636.00689453 290.78271484 635.88769531 C250.69807775 630.97461195 210.0478339 635.26755219 170.4921875 642.23828125 Z " fill="#000000" transform="translate(611.5078125,-0.23828125)"/>
<path d="M0 0 C-1.49530324 3.48972003 -3.49191662 5.73465395 -6.17431641 8.40136719 C-7.46542831 9.6922525 -7.46542831 9.6922525 -8.78262329 11.00921631 C-9.71287323 11.92914368 -10.64312317 12.84907104 -11.6015625 13.796875 C-12.56321086 14.75479097 -13.52441694 15.71315114 -14.48519897 16.67193604 C-17.00923282 19.18835125 -19.53921591 21.69870107 -22.07049561 24.20782471 C-24.6547919 26.77162441 -27.23340199 29.34112918 -29.8125 31.91015625 C-34.86945697 36.94569457 -39.93272256 41.9748456 -45 47 C-45.66 46.67 -46.32 46.34 -47 46 C-37.68087543 35.76531231 -28.01576888 25.88246549 -18.25152588 16.07427979 C-16.87249977 14.68840279 -15.49518579 13.30082007 -14.11956787 11.91156006 C-12.16169031 9.93582326 -10.19714294 7.96697601 -8.23046875 6 C-7.63208694 5.39447296 -7.03370514 4.78894592 -6.41719055 4.16506958 C-2.22910511 0 -2.22910511 0 0 0 Z " fill="#171717" transform="translate(209,166)"/>
</svg>
