<?xml version="1.0" encoding="UTF-8"?>
<svg version="1.1" xmlns="http://www.w3.org/2000/svg" width="258" height="258">
<path d="M0 0 C1.37076295 0.40045476 2.74173876 0.80018154 4.11291504 1.19921875 C6.96520635 2.03116675 9.81577261 2.86868906 12.66503906 3.7109375 C16.31910664 4.79107455 19.975851 5.86177166 23.6337204 6.92895508 C27.13166166 7.94974573 30.62844395 8.97447606 34.125 10 C34.79103745 10.19513184 35.45707489 10.39026367 36.14329529 10.59130859 C38.01998955 11.14205934 39.89576078 11.69595242 41.77148438 12.25 C42.83830444 12.56453125 43.90512451 12.8790625 45.00427246 13.203125 C47.53125 14 47.53125 14 49.53125 15 C49.53125 81 49.53125 147 49.53125 215 C27.90830071 221.82829978 27.90830071 221.82829978 19.40625 223.9375 C13.16349765 225.51754879 6.94542709 227.14819627 0.7578125 228.93359375 C-0.92610596 229.41807983 -0.92610596 229.41807983 -2.64404297 229.91235352 C-4.80935867 230.53930606 -6.9725815 231.17354733 -9.13330078 231.81616211 C-10.12056152 232.10112549 -11.10782227 232.38608887 -12.125 232.6796875 C-12.98931641 232.93476074 -13.85363281 233.18983398 -14.74414062 233.45263672 C-20.7612618 234.66145264 -25.42811785 233.96704509 -31.1171875 231.8046875 C-31.73284576 231.57476105 -32.34850403 231.34483459 -32.9828186 231.10794067 C-34.94068669 230.37429977 -36.89222345 229.6253258 -38.84375 228.875 C-40.74959952 228.15378873 -42.65666771 227.43587294 -44.56385803 226.71821594 C-45.860284 226.23010323 -47.15620599 225.74065007 -48.4516449 225.24992371 C-53.22498132 223.44712184 -58.02388572 221.72826143 -62.83984375 220.04296875 C-71.6555143 216.95627795 -80.40775066 213.70892895 -89.15625 210.4375 C-92.11804221 209.33082881 -95.0802407 208.22525717 -98.04296875 207.12109375 C-98.75524628 206.85557709 -99.4675238 206.59006042 -100.2013855 206.3164978 C-105.95737405 204.17688649 -111.73546405 202.10548976 -117.52661133 200.06274414 C-120.99089342 198.81139405 -124.39497949 197.4381271 -127.8046875 196.046875 C-133.30445789 193.8856749 -138.89469308 191.95975488 -144.46875 190 C-144.46875 189.01 -144.46875 188.02 -144.46875 187 C-133.91961446 187.68848805 -123.50113032 189.15319873 -113.0390625 190.6171875 C-111.15839585 190.87790406 -109.27768821 191.13832502 -107.39694214 191.39846802 C-102.46330638 192.08165037 -97.53021036 192.76865349 -92.597229 193.45654297 C-87.64585144 194.14638923 -82.6940112 194.83289601 -77.7421875 195.51953125 C-71.37844786 196.40203907 -65.01481141 197.28526182 -58.65165901 198.17199516 C-46.92662903 199.80218613 -35.19822216 201.40052652 -23.46875 203 C-22.97375 119.345 -22.97375 119.345 -22.46875 34 C-47.21875 39.94 -71.96875 45.88 -97.46875 52 C-100.10875 52.33 -102.74875 52.66 -105.46875 53 C-105.46782821 53.59598936 -105.46690641 54.19197872 -105.46595669 54.80602837 C-105.44389212 69.29399551 -105.42733388 83.78196115 -105.41693783 98.26994133 C-105.41177702 105.27615842 -105.4047384 112.28236431 -105.39331055 119.28857422 C-105.38229574 126.04476196 -105.37647231 132.80093564 -105.37387276 139.55713272 C-105.37201923 142.14002796 -105.3684 144.72292253 -105.36301994 147.30581284 C-105.35580427 150.91206004 -105.35475929 154.51825851 -105.35522461 158.12451172 C-105.35162933 159.20200684 -105.34803406 160.27950195 -105.34432983 161.38964844 C-105.3457045 162.36843964 -105.34707916 163.34723083 -105.34849548 164.35568237 C-105.34757369 165.20926268 -105.3466519 166.06284298 -105.34570217 166.94228935 C-105.46875 169 -105.46875 169 -106.46875 171 C-108.61218092 171.96829039 -110.79716675 172.84506038 -112.99609375 173.6796875 C-113.99051231 174.06074142 -113.99051231 174.06074142 -115.00502014 174.44949341 C-117.13630869 175.26461139 -119.27111304 176.07002329 -121.40625 176.875 C-123.50293567 177.67288591 -125.59886675 178.47272978 -127.69473267 179.27276611 C-129.05658518 179.79186615 -130.41902908 180.30941745 -131.78207397 180.82537842 C-136.40894982 182.5794059 -140.99458481 184.41568782 -145.55297852 186.34033203 C-147.46875 187 -147.46875 187 -150.46875 187 C-150.46875 139.48 -150.46875 91.96 -150.46875 43 C-140.35399386 38.50455283 -140.35399386 38.50455283 -135.703125 36.80859375 C-134.66365723 36.42711182 -133.62418945 36.04562988 -132.55322266 35.65258789 C-131.45284668 35.25160889 -130.3524707 34.85062988 -129.21875 34.4375 C-126.80433212 33.55044585 -124.39028169 32.66239106 -121.9765625 31.7734375 C-121.04878494 31.43195427 -121.04878494 31.43195427 -120.1022644 31.08357239 C-113.41661675 28.61916985 -106.75400754 26.09463703 -100.09375 23.5625 C-98.89500244 23.10689697 -97.69625488 22.65129395 -96.46118164 22.18188477 C-94.02331713 21.25487379 -91.58557322 20.32754557 -89.14794922 19.39990234 C-82.98526819 17.05505742 -76.82097208 14.71447291 -70.65625 12.375 C-69.46249756 11.9219751 -68.26874512 11.4689502 -67.03881836 11.00219727 C-44.1264366 2.31388729 -44.1264366 2.31388729 -34.87255859 -1.08203125 C-33.35794709 -1.66043256 -31.85721346 -2.27808819 -30.38134766 -2.94921875 C-20.43846469 -7.33848644 -9.85923582 -2.92893638 0 0 Z " fill="#FEFEFE" transform="translate(179.46875,13)"/>
</svg>
